<?xml version="1.0" encoding="UTF-8" standalone="no"?>
<svg version="1.1" xmlns="http://www.w3.org/2000/svg" width="49" height="83">
 <path d="M 5,27 5,28 6,28 6,27 M 5,28 5,29 6,29 6,28 M 5,29 5,30 6,30 6,29 M 5,30 5,31 6,31 6,30 M 6,24 6,25 7,25 7,24 M 6,25 6,26 7,26 7,25 M 6,26 6,27 7,27 7,26 M 6,31 6,32 7,32 7,31 M 7,18 7,19 8,19 8,18 M 7,19 7,20 8,20 8,19 M 7,20 7,21 8,21 8,20 M 7,21 7,22 8,22 8,21 M 7,22 7,23 8,23 8,22 M 7,23 7,24 8,24 8,23 M 7,31 7,32 8,32 8,31 M 7,32 7,33 8,33 8,32 M 8,18 8,19 9,19 9,18 M 8,19 8,20 9,20 9,19 M 8,20 8,21 9,21 9,20 M 8,31 8,32 9,32 9,31 M 8,32 8,33 9,33 9,32 M 9,21 9,22 10,22 10,21 M 9,32 9,33 10,33 10,32 M 10,26 10,27 11,27 11,26 M 10,32 10,33 11,33 11,32 M 11,26 11,27 12,27 12,26 M 11,32 11,33 12,33 12,32 M 12,21 12,22 13,22 13,21 M 12,31 12,32 13,32 13,31 M 13,20 13,21 14,21 14,20 M 13,25 13,26 14,26 14,25 M 13,31 13,32 14,32 14,31 M 14,19 14,20 15,20 15,19 M 14,20 14,21 15,21 15,20 M 14,23 14,24 15,24 15,23 M 14,24 14,25 15,25 15,24 M 15,21 15,22 16,22 16,21 M 15,22 15,23 16,23 16,22 M 20,12 20,13 21,13 21,12 M 21,11 21,12 22,12 22,11 M 21,12 21,13 22,13 22,12 M 21,13 21,14 22,14 22,13 M 22,9 22,10 23,10 23,9 M 22,10 22,11 23,11 23,10 M 22,11 22,12 23,12 23,11 M 22,12 22,13 23,13 23,12 M 22,13 22,14 23,14 23,13 M 22,14 22,15 23,15 23,14 M 23,7 23,8 24,8 24,7 M 23,8 23,9 24,9 24,8 M 23,9 23,10 24,10 24,9 M 23,13 23,14 24,14 24,13 M 23,14 23,15 24,15 24,14 M 23,15 23,16 24,16 24,15 M 24,9 24,10 25,10 25,9 M 24,15 24,16 25,16 25,15 M 24,16 24,17 25,17 25,16 M 25,16 25,17 26,17 26,16 M 26,10 26,11 27,11 27,10 M 26,14 26,15 27,15 27,14 M 26,16 26,17 27,17 27,16 M 27,11 27,12 28,12 28,11 M 27,15 27,16 28,16 28,15 M 27,30 27,31 28,31 28,30 M 27,31 27,32 28,32 28,31 M 28,11 28,12 29,12 29,11 M 28,14 28,15 29,15 29,14 M 29,13 29,14 30,14 30,13 M 29,28 29,29 30,29 30,28 M 29,29 29,30 30,30 30,29 M 30,11 30,12 31,12 31,11 M 30,26 30,27 31,27 31,26 M 30,27 30,28 31,28 31,27 M 30,28 30,29 31,29 31,28 M 30,29 30,30 31,30 31,29 M 30,30 30,31 31,31 31,30 M 30,31 30,32 31,32 31,31 M 31,26 31,27 32,27 32,26 M 31,27 31,28 32,28 32,27 M 31,30 31,31 32,31 32,30 M 31,31 31,32 32,32 32,31 M 31,32 31,33 32,33 32,32 M 31,33 31,34 32,34 32,33 M 32,25 32,26 33,26 33,25 M 32,26 32,27 33,27 33,26 M 32,34 32,35 33,35 33,34 M 33,24 33,25 34,25 34,24 M 33,28 33,29 34,29 34,28 M 33,33 33,34 34,34 34,33 M 33,34 33,35 34,35 34,34 M 34,27 34,28 35,28 35,27 M 34,32 34,33 35,33 35,32 M 34,34 34,35 35,35 35,34 M 35,24 35,25 36,25 36,24 M 35,25 35,26 36,26 36,25 M 35,26 35,27 36,27 36,26 M 35,27 35,28 36,28 36,27 M 35,32 35,33 36,33 36,32 M 35,34 35,35 36,35 36,34 M 36,26 36,27 37,27 37,26 M 36,31 36,32 37,32 37,31 M 36,33 36,34 37,34 37,33 M 37,26 37,27 38,27 38,26 M 37,33 37,34 38,34 38,33 M 38,27 38,28 39,28 39,27 M 38,31 38,32 39,32 39,31 M 38,32 38,33 39,33 39,32 M 39,28 39,29 40,29 40,28 M 39,30 39,31 40,31 40,30 M 40,29 40,30 41,30 41,29  z" id="path0" style="fill:#602000;"/>
 <path d="M 6,27 6,28 7,28 7,27 M 6,28 6,29 7,29 7,28 M 6,29 6,30 7,30 7,29 M 7,26 7,27 8,27 8,26 M 7,27 7,28 8,28 8,27 M 7,28 7,29 8,29 8,28 M 7,29 7,30 8,30 8,29 M 8,24 8,25 9,25 9,24 M 8,25 8,26 9,26 9,25 M 8,26 8,27 9,27 9,26 M 8,27 8,28 9,28 9,27 M 8,28 8,29 9,29 9,28 M 8,29 8,30 9,30 9,29 M 9,18 9,19 10,19 10,18 M 9,22 9,23 10,23 10,22 M 9,23 9,24 10,24 10,23 M 9,24 9,25 10,25 10,24 M 9,25 9,26 10,26 10,25 M 9,26 9,27 10,27 10,26 M 9,28 9,29 10,29 10,28 M 9,29 9,30 10,30 10,29 M 10,18 10,19 11,19 11,18 M 10,19 10,20 11,20 11,19 M 10,22 10,23 11,23 11,22 M 10,28 10,29 11,29 11,28 M 10,29 10,30 11,30 11,29 M 10,31 10,32 11,32 11,31 M 11,20 11,21 12,21 12,20 M 11,23 11,24 12,24 12,23 M 11,24 11,25 12,25 12,24 M 11,27 11,28 12,28 12,27 M 11,28 11,29 12,29 12,28 M 12,20 12,21 13,21 13,20 M 12,22 12,23 13,23 13,22 M 12,24 12,25 13,25 13,24 M 13,19 13,20 14,20 14,19 M 13,22 13,23 14,23 14,22 M 13,23 13,24 14,24 14,23 M 16,28 16,29 17,29 17,28 M 18,14 18,15 19,15 19,14 M 19,13 19,14 20,14 20,13 M 19,14 19,15 20,15 20,14 M 19,15 19,16 20,16 20,15 M 19,23 19,24 20,24 20,23 M 21,15 21,16 22,16 22,15 M 21,16 21,17 22,17 22,16 M 21,31 21,32 22,32 22,31 M 21,32 21,33 22,33 22,32 M 22,7 22,8 23,8 23,7 M 22,16 22,17 23,17 23,16 M 22,17 22,18 23,18 23,17 M 22,31 22,32 23,32 23,31 M 22,32 22,33 23,33 23,32 M 23,17 23,18 24,18 24,17 M 24,10 24,11 25,11 25,10 M 24,11 24,12 25,12 25,11 M 24,13 24,14 25,14 25,13 M 25,9 25,10 26,10 26,9 M 25,14 25,15 26,15 26,14 M 26,9 26,10 27,10 27,9 M 26,11 26,12 27,12 27,11 M 26,13 26,14 27,14 27,13 M 26,15 26,16 27,16 27,15 M 26,17 26,18 27,18 27,17 M 27,9 27,10 28,10 28,9 M 27,12 27,13 28,13 28,12 M 27,13 27,14 28,14 28,13 M 28,10 28,11 29,11 29,10 M 28,12 28,13 29,13 29,12 M 29,9 29,10 30,10 30,9 M 29,10 29,11 30,11 30,10 M 30,7 30,8 31,8 31,7 M 33,26 33,27 34,27 34,26 M 33,31 33,32 34,32 34,31 M 34,25 34,26 35,26 35,25 M 34,29 34,30 35,30 35,29 M 34,30 34,31 35,31 35,30 M 35,29 35,30 36,30 36,29 M 35,30 35,31 36,31 36,30 M 36,28 36,29 37,29 37,28 M 36,29 36,30 37,30 37,29 M 37,28 37,29 38,29 38,28 M 39,20 39,21 40,21 40,20 M 40,18 40,19 41,19 41,18 M 41,19 41,20 42,20 42,19  z" id="path1" style="fill:#e0a060;"/>
 <path d="M 6,30 6,31 7,31 7,30 M 7,24 7,25 8,25 8,24 M 7,25 7,26 8,26 8,25 M 7,30 7,31 8,31 8,30 M 8,21 8,22 9,22 9,21 M 8,22 8,23 9,23 9,22 M 8,23 8,24 9,24 9,23 M 8,30 8,31 9,31 9,30 M 9,19 9,20 10,20 10,19 M 9,20 9,21 10,21 10,20 M 9,30 9,31 10,31 10,30 M 9,31 9,32 10,32 10,31 M 10,20 10,21 11,21 11,20 M 10,21 10,22 11,22 11,21 M 10,23 10,24 11,24 11,23 M 10,24 10,25 11,25 11,24 M 10,25 10,26 11,26 11,25 M 10,30 10,31 11,31 11,30 M 11,21 11,22 12,22 12,21 M 11,22 11,23 12,23 12,22 M 11,25 11,26 12,26 12,25 M 11,29 11,30 12,30 12,29 M 11,30 11,31 12,31 12,30 M 11,31 11,32 12,32 12,31 M 12,25 12,26 13,26 13,25 M 12,29 12,30 13,30 13,29 M 12,30 12,31 13,31 13,30 M 13,21 13,22 14,22 14,21 M 13,24 13,25 14,25 14,24 M 13,30 13,31 14,31 14,30 M 14,21 14,22 15,22 15,21 M 14,22 14,23 15,23 15,22 M 16,27 16,28 17,28 17,27 M 18,13 18,14 19,14 19,13 M 18,23 18,24 19,24 19,23 M 19,12 19,13 20,13 20,12 M 19,24 19,25 20,25 20,24 M 19,31 19,32 20,32 20,31 M 20,13 20,14 21,14 21,13 M 20,14 20,15 21,15 21,14 M 20,15 20,16 21,16 21,15 M 20,16 20,17 21,17 21,16 M 20,31 20,32 21,32 21,31 M 21,9 21,10 22,10 22,9 M 21,10 21,11 22,11 22,10 M 21,14 21,15 22,15 22,14 M 22,8 22,9 23,9 23,8 M 22,15 22,16 23,16 23,15 M 23,10 23,11 24,11 24,10 M 23,11 23,12 24,12 24,11 M 23,12 23,13 24,13 24,12 M 23,16 23,17 24,17 24,16 M 24,8 24,9 25,9 25,8 M 24,14 24,15 25,15 25,14 M 24,17 24,18 25,18 25,17 M 25,8 25,9 26,9 26,8 M 25,10 25,11 26,11 26,10 M 25,15 25,16 26,16 26,15 M 25,17 25,18 26,18 26,17 M 26,8 26,9 27,9 27,8 M 26,31 26,32 27,32 27,31 M 26,32 26,33 27,33 27,32 M 27,10 27,11 28,11 28,10 M 27,14 27,15 28,15 28,14 M 27,16 27,17 28,17 28,16 M 28,15 28,16 29,16 29,15 M 28,16 28,17 29,17 29,16 M 29,11 29,12 30,12 30,11 M 29,12 29,13 30,13 30,12 M 30,10 30,11 31,11 31,10 M 31,28 31,29 32,29 32,28 M 31,29 31,30 32,30 32,29 M 32,27 32,28 33,28 33,27 M 32,28 32,29 33,29 33,28 M 32,29 32,30 33,30 33,29 M 32,30 32,31 33,31 33,30 M 32,31 32,32 33,32 33,31 M 32,32 32,33 33,33 33,32 M 32,33 32,34 33,34 33,33 M 33,25 33,26 34,26 34,25 M 33,27 33,28 34,28 34,27 M 33,29 33,30 34,30 34,29 M 33,30 33,31 34,31 34,30 M 33,32 33,33 34,33 34,32 M 34,24 34,25 35,25 35,24 M 34,26 34,27 35,27 35,26 M 34,28 34,29 35,29 35,28 M 34,31 34,32 35,32 35,31 M 34,33 34,34 35,34 35,33 M 35,28 35,29 36,29 36,28 M 35,31 35,32 36,32 36,31 M 35,33 35,34 36,34 36,33 M 36,27 36,28 37,28 37,27 M 36,30 36,31 37,31 37,30 M 36,32 36,33 37,33 37,32 M 37,27 37,28 38,28 38,27 M 37,29 37,30 38,30 38,29 M 37,30 37,31 38,31 38,30 M 37,31 37,32 38,32 38,31 M 37,32 37,33 38,33 38,32 M 38,28 38,29 39,29 39,28 M 38,29 38,30 39,30 39,29 M 38,30 38,31 39,31 39,30 M 39,21 39,22 40,22 40,21 M 39,29 39,30 40,30 40,29 M 40,20 40,21 41,21 41,20 M 41,18 41,19 42,19 42,18 M 42,19 42,20 43,20 43,19 M 42,20 42,21 43,21 43,20 M 42,21 42,22 43,22 43,21 M 43,21 43,22 44,22 44,21 M 43,22 43,23 44,23 44,22  z" id="path2" style="fill:#a06020;"/>
 <path d="M 7,15 7,16 8,16 8,15 M 7,16 7,17 8,17 8,16 M 7,17 7,18 8,18 8,17 M 8,14 8,15 9,15 9,14 M 9,13 9,14 10,14 10,13 M 10,12 10,13 11,13 11,12 M 10,73 10,74 11,74 11,73 M 10,74 10,75 11,75 11,74 M 10,75 10,76 11,76 11,75 M 11,12 11,13 12,13 12,12 M 11,72 11,73 12,73 12,72 M 11,74 11,75 12,75 12,74 M 12,12 12,13 13,13 13,12 M 12,72 12,73 13,73 13,72 M 12,78 12,79 13,79 13,78 M 12,79 12,80 13,80 13,79 M 13,11 13,12 14,12 14,11 M 13,18 13,19 14,19 14,18 M 13,73 13,74 14,74 14,73 M 13,74 13,75 14,75 14,74 M 14,11 14,12 15,12 15,11 M 14,75 14,76 15,76 15,75 M 15,11 15,12 16,12 16,11 M 15,20 15,21 16,21 16,20 M 15,23 15,24 16,24 16,23 M 15,24 15,25 16,25 16,24 M 15,76 15,77 16,77 16,76 M 16,11 16,12 17,12 17,11 M 16,19 16,20 17,20 17,19 M 16,20 16,21 17,21 17,20 M 16,21 16,22 17,22 17,21 M 16,22 16,23 17,23 17,22 M 16,23 16,24 17,24 17,23 M 16,24 16,25 17,25 17,24 M 17,10 17,11 18,11 18,10 M 17,13 17,14 18,14 18,13 M 17,14 17,15 18,15 18,14 M 17,21 17,22 18,22 18,21 M 17,24 17,25 18,25 18,24 M 18,10 18,11 19,11 19,10 M 18,12 18,13 19,13 19,12 M 18,15 18,16 19,16 19,15 M 19,10 19,11 20,11 20,10 M 19,11 19,12 20,12 20,11 M 19,16 19,17 20,17 20,16 M 21,17 21,18 22,18 22,17 M 22,30 22,31 23,31 23,30 M 23,18 23,19 24,19 24,18 M 23,29 23,30 24,30 24,29 M 23,30 23,31 24,31 24,30 M 24,18 24,19 25,19 25,18 M 24,27 24,28 25,28 25,27 M 24,28 24,29 25,29 25,28 M 24,29 24,30 25,30 25,29 M 24,30 24,31 25,31 25,30 M 25,18 25,19 26,19 26,18 M 25,27 25,28 26,28 26,27 M 25,28 25,29 26,29 26,28 M 25,29 25,30 26,30 26,29 M 25,30 25,31 26,31 26,30 M 26,18 26,19 27,19 27,18 M 26,25 26,26 27,26 27,25 M 26,27 26,28 27,28 27,27 M 26,28 26,29 27,29 27,28 M 26,29 26,30 27,30 27,29 M 26,30 26,31 27,31 27,30 M 26,71 26,72 27,72 27,71 M 26,72 26,73 27,73 27,72 M 26,73 26,74 27,74 27,73 M 27,17 27,18 28,18 28,17 M 27,25 27,26 28,26 28,25 M 27,28 27,29 28,29 28,28 M 27,29 27,30 28,30 28,29 M 27,69 27,70 28,70 28,69 M 27,70 27,71 28,71 28,70 M 27,73 27,74 28,74 28,73 M 28,17 28,18 29,18 29,17 M 28,25 28,26 29,26 29,25 M 28,26 28,27 29,27 29,26 M 28,28 28,29 29,29 29,28 M 28,69 28,70 29,70 29,69 M 28,70 28,71 29,71 29,70 M 28,73 28,74 29,74 29,73 M 29,14 29,15 30,15 30,14 M 29,15 29,16 30,16 30,15 M 29,16 29,17 30,17 30,16 M 29,25 29,26 30,26 30,25 M 29,26 29,27 30,27 30,26 M 29,27 29,28 30,28 30,27 M 29,71 29,72 30,72 30,71 M 29,72 29,73 30,73 30,72 M 30,14 30,15 31,15 31,14 M 30,16 30,17 31,17 31,16 M 30,25 30,26 31,26 31,25 M 30,71 30,72 31,72 31,71 M 31,15 31,16 32,16 32,15 M 31,24 31,25 32,25 32,24 M 31,25 31,26 32,26 32,25 M 31,71 31,72 32,72 32,71 M 32,15 32,16 33,16 33,15 M 32,23 32,24 33,24 33,23 M 32,24 32,25 33,25 33,24 M 32,72 32,73 33,73 33,72 M 32,75 32,76 33,76 33,75 M 33,16 33,17 34,17 34,16 M 33,21 33,22 34,22 34,21 M 33,22 33,23 34,23 34,22 M 33,23 33,24 34,24 34,23 M 33,72 33,73 34,73 34,72 M 33,74 33,75 34,75 34,74 M 33,76 33,77 34,77 34,76 M 34,16 34,17 35,17 35,16 M 34,23 34,24 35,24 35,23 M 34,76 34,77 35,77 35,76 M 35,17 35,18 36,18 36,17 M 35,18 35,19 36,19 36,18 M 35,23 35,24 36,24 36,23 M 35,76 35,77 36,77 36,76 M 36,19 36,20 37,20 37,19 M 36,20 36,21 37,21 37,20 M 36,21 36,22 37,22 37,21 M 36,22 36,23 37,23 37,22 M 36,76 36,77 37,77 37,76 M 37,76 37,77 38,77 38,76 M 38,26 38,27 39,27 39,26 M 38,76 38,77 39,77 39,76 M 39,27 39,28 40,28 40,27 M 40,24 40,25 41,25 41,24  z" id="path3" style="fill:#606060;"/>
 <path d="M 8,15 8,16 9,16 9,15 M 8,16 8,17 9,17 9,16 M 8,17 8,18 9,18 9,17 M 9,14 9,15 10,15 10,14 M 9,17 9,18 10,18 10,17 M 10,13 10,14 11,14 11,13 M 10,17 10,18 11,18 11,17 M 11,13 11,14 12,14 12,13 M 11,17 11,18 12,18 12,17 M 11,76 11,77 12,77 12,76 M 12,13 12,14 13,14 13,13 M 12,17 12,18 13,18 13,17 M 12,26 12,27 13,27 13,26 M 12,73 12,74 13,74 13,73 M 12,74 12,75 13,75 13,74 M 12,76 12,77 13,77 13,76 M 13,12 13,13 14,13 14,12 M 13,13 13,14 14,14 14,13 M 13,75 13,76 14,76 14,75 M 13,78 13,79 14,79 14,78 M 13,79 13,80 14,80 14,79 M 14,12 14,13 15,13 15,12 M 14,13 14,14 15,14 15,13 M 14,18 14,19 15,19 15,18 M 14,30 14,31 15,31 15,30 M 14,77 14,78 15,78 15,77 M 15,12 15,13 16,13 16,12 M 15,13 15,14 16,14 16,13 M 15,19 15,20 16,20 16,19 M 15,25 15,26 16,26 16,25 M 15,75 15,76 16,76 16,75 M 16,12 16,13 17,13 17,12 M 16,13 16,14 17,14 17,13 M 16,17 16,18 17,18 17,17 M 16,18 16,19 17,19 17,18 M 16,76 16,77 17,77 17,76 M 17,11 17,12 18,12 18,11 M 17,12 17,13 18,13 18,12 M 17,20 17,21 18,21 18,20 M 17,22 17,23 18,23 18,22 M 17,23 17,24 18,24 18,23 M 17,75 17,76 18,76 18,75 M 17,76 17,77 18,77 18,76 M 18,11 18,12 19,12 19,11 M 18,20 18,21 19,21 19,20 M 18,22 18,23 19,23 19,22 M 18,77 18,78 19,78 19,77 M 19,77 19,78 20,78 20,77 M 20,17 20,18 21,18 21,17 M 20,78 20,79 21,79 21,78 M 21,78 21,79 22,79 22,78 M 21,79 21,80 22,80 22,79 M 22,18 22,19 23,19 23,18 M 23,24 23,25 24,25 24,24 M 23,25 23,26 24,26 24,25 M 23,31 23,32 24,32 24,31 M 23,32 23,33 24,33 24,32 M 24,24 24,25 25,25 25,24 M 24,25 24,26 25,26 25,25 M 24,26 24,27 25,27 25,26 M 25,24 25,25 26,25 26,24 M 25,25 25,26 26,26 26,25 M 25,26 25,27 26,27 26,26 M 26,23 26,24 27,24 27,23 M 26,24 26,25 27,25 27,24 M 26,26 26,27 27,27 27,26 M 27,23 27,24 28,24 28,23 M 27,24 27,25 28,25 28,24 M 27,26 27,27 28,27 28,26 M 27,27 27,28 28,28 28,27 M 27,71 27,72 28,72 28,71 M 27,72 27,73 28,73 28,72 M 28,24 28,25 29,25 29,24 M 28,27 28,28 29,28 29,27 M 28,71 28,72 29,72 29,71 M 28,72 28,73 29,73 29,72 M 29,17 29,18 30,18 30,17 M 29,24 29,25 30,25 30,24 M 29,70 29,71 30,71 30,70 M 30,15 30,16 31,16 31,15 M 30,24 30,25 31,25 31,24 M 31,16 31,17 32,17 32,16 M 31,23 31,24 32,24 32,23 M 31,70 31,71 32,71 32,70 M 32,16 32,17 33,17 33,16 M 32,22 32,23 33,23 33,22 M 32,71 32,72 33,72 33,71 M 33,20 33,21 34,21 34,20 M 33,75 33,76 34,76 34,75 M 34,17 34,18 35,18 35,17 M 34,18 34,19 35,19 35,18 M 34,22 34,23 35,23 35,22 M 34,73 34,74 35,74 35,73 M 34,74 34,75 35,75 35,74 M 34,75 34,76 35,76 35,75 M 35,19 35,20 36,20 36,19 M 35,20 35,21 36,21 36,20 M 35,21 35,22 36,22 36,21 M 35,22 35,23 36,23 36,22 M 35,74 35,75 36,75 36,74 M 35,75 35,76 36,76 36,75 M 36,74 36,75 37,75 37,74 M 36,75 36,76 37,76 37,75 M 37,25 37,26 38,26 38,25 M 37,74 37,75 38,75 38,74 M 37,75 37,76 38,76 38,75 M 38,75 38,76 39,76 39,75 M 39,23 39,24 40,24 40,23 M 40,28 40,29 41,29 41,28 M 41,25 41,26 42,26 42,25 M 42,26 42,27 43,27 43,26  z" id="path4" style="fill:#a0a0a0;"/>
 <path d="M 9,15 9,16 10,16 10,15 M 9,16 9,17 10,17 10,16 M 9,27 9,28 10,28 10,27 M 10,14 10,15 11,15 11,14 M 10,15 10,16 11,16 11,15 M 10,16 10,17 11,17 11,16 M 10,27 10,28 11,28 11,27 M 11,14 11,15 12,15 12,14 M 11,15 11,16 12,16 12,15 M 11,16 11,17 12,17 12,16 M 11,18 11,19 12,19 12,18 M 11,19 11,20 12,20 12,19 M 11,73 11,74 12,74 12,73 M 11,75 11,76 12,76 12,75 M 12,14 12,15 13,15 13,14 M 12,15 12,16 13,16 13,15 M 12,16 12,17 13,17 13,16 M 12,18 12,19 13,19 13,18 M 12,19 12,20 13,20 13,19 M 12,23 12,24 13,24 13,23 M 12,27 12,28 13,28 13,27 M 12,28 12,29 13,29 13,28 M 12,75 12,76 13,76 13,75 M 13,14 13,15 14,15 14,14 M 13,15 13,16 14,16 14,15 M 13,16 13,17 14,17 14,16 M 13,17 13,18 14,18 14,17 M 13,29 13,30 14,30 14,29 M 14,14 14,15 15,15 15,14 M 14,15 14,16 15,16 15,15 M 14,16 14,17 15,17 15,16 M 14,17 14,18 15,18 15,17 M 14,78 14,79 15,79 15,78 M 14,79 14,80 15,80 15,79 M 15,14 15,15 16,15 16,14 M 15,15 15,16 16,16 16,15 M 15,16 15,17 16,17 16,16 M 15,17 15,18 16,18 16,17 M 15,18 15,19 16,19 16,18 M 15,26 15,27 16,27 16,26 M 15,27 15,28 16,28 16,27 M 15,28 15,29 16,29 16,28 M 15,74 15,75 16,75 16,74 M 15,77 15,78 16,78 16,77 M 15,78 15,79 16,79 16,78 M 15,79 15,80 16,80 16,79 M 16,14 16,15 17,15 17,14 M 16,15 16,16 17,16 17,15 M 16,16 16,17 17,17 17,16 M 16,29 16,30 17,30 17,29 M 16,74 16,75 17,75 17,74 M 16,75 16,76 17,76 17,75 M 16,77 16,78 17,78 17,77 M 16,78 16,79 17,79 17,78 M 16,79 16,80 17,80 17,79 M 17,15 17,16 18,16 18,15 M 17,16 17,17 18,17 18,16 M 17,17 17,18 18,18 18,17 M 17,18 17,19 18,19 18,18 M 17,19 17,20 18,20 18,19 M 17,77 17,78 18,78 18,77 M 17,78 17,79 18,79 18,78 M 17,79 17,80 18,80 18,79 M 18,16 18,17 19,17 19,16 M 18,17 18,18 19,18 19,17 M 18,18 18,19 19,19 19,18 M 18,19 18,20 19,20 19,19 M 18,21 18,22 19,22 19,21 M 18,78 18,79 19,79 19,78 M 18,79 18,80 19,80 19,79 M 19,17 19,18 20,18 20,17 M 19,18 19,19 20,19 20,18 M 19,19 19,20 20,20 20,19 M 19,20 19,21 20,21 20,20 M 19,21 19,22 20,22 20,21 M 19,22 19,23 20,23 20,22 M 19,78 19,79 20,79 20,78 M 19,79 19,80 20,80 20,79 M 20,18 20,19 21,19 21,18 M 20,19 20,20 21,20 21,19 M 20,20 20,21 21,21 21,20 M 20,21 20,22 21,22 21,21 M 20,22 20,23 21,23 21,22 M 20,79 20,80 21,80 21,79 M 21,18 21,19 22,19 22,18 M 21,19 21,20 22,20 22,19 M 21,20 21,21 22,21 22,20 M 21,21 21,22 22,22 22,21 M 21,22 21,23 22,23 22,22 M 22,19 22,20 23,20 23,19 M 22,20 22,21 23,21 23,20 M 22,21 22,22 23,22 23,21 M 22,22 22,23 23,23 23,22 M 22,23 22,24 23,24 23,23 M 23,19 23,20 24,20 24,19 M 23,20 23,21 24,21 24,20 M 23,21 23,22 24,22 24,21 M 23,22 23,23 24,23 24,22 M 23,23 23,24 24,24 24,23 M 24,4 24,5 25,5 25,4 M 24,12 24,13 25,13 25,12 M 24,19 24,20 25,20 25,19 M 24,20 24,21 25,21 25,20 M 24,21 24,22 25,22 25,21 M 24,22 24,23 25,23 25,22 M 24,23 24,24 25,24 25,23 M 24,31 24,32 25,32 25,31 M 24,32 24,33 25,33 25,32 M 25,3 25,4 26,4 26,3 M 25,5 25,6 26,6 26,5 M 25,11 25,12 26,12 26,11 M 25,12 25,13 26,13 26,12 M 25,13 25,14 26,14 26,13 M 25,19 25,20 26,20 26,19 M 25,20 25,21 26,21 26,20 M 25,21 25,22 26,22 26,21 M 25,22 25,23 26,23 26,22 M 25,23 25,24 26,24 26,23 M 25,31 25,32 26,32 26,31 M 25,32 25,33 26,33 26,32 M 26,4 26,5 27,5 27,4 M 26,12 26,13 27,13 27,12 M 26,19 26,20 27,20 27,19 M 26,20 26,21 27,21 27,20 M 26,21 26,22 27,22 27,21 M 26,22 26,23 27,23 27,22 M 27,4 27,5 28,5 28,4 M 27,18 27,19 28,19 28,18 M 27,19 27,20 28,20 28,19 M 27,20 27,21 28,21 28,20 M 27,21 27,22 28,22 28,21 M 27,22 27,23 28,23 28,22 M 28,13 28,14 29,14 29,13 M 28,18 28,19 29,19 29,18 M 28,19 28,20 29,20 29,19 M 28,20 28,21 29,21 29,20 M 28,21 28,22 29,22 29,21 M 28,22 28,23 29,23 29,22 M 28,23 28,24 29,24 29,23 M 29,18 29,19 30,19 30,18 M 29,19 29,20 30,20 30,19 M 29,20 29,21 30,21 30,20 M 29,21 29,22 30,22 30,21 M 29,22 29,23 30,23 30,22 M 29,23 29,24 30,24 30,23 M 30,17 30,18 31,18 31,17 M 30,18 30,19 31,19 31,18 M 30,19 30,20 31,20 31,19 M 30,20 30,21 31,21 31,20 M 30,21 30,22 31,22 31,21 M 30,22 30,23 31,23 31,22 M 30,23 30,24 31,24 31,23 M 31,17 31,18 32,18 32,17 M 31,18 31,19 32,19 32,18 M 31,19 31,20 32,20 32,19 M 31,20 31,21 32,21 32,20 M 31,21 31,22 32,22 32,21 M 31,22 31,23 32,23 32,22 M 32,6 32,7 33,7 33,6 M 32,17 32,18 33,18 33,17 M 32,18 32,19 33,19 33,18 M 32,19 32,20 33,20 33,19 M 32,20 32,21 33,21 33,20 M 32,21 32,22 33,22 33,21 M 33,17 33,18 34,18 34,17 M 33,18 33,19 34,19 34,18 M 33,19 33,20 34,20 34,19 M 34,19 34,20 35,20 35,19 M 34,20 34,21 35,21 35,20 M 34,21 34,22 35,22 35,21  z" id="path5" style="fill:#e0e0e0;"/>
 <path d="M 10,76 10,77 11,77 11,76 M 11,77 11,78 12,78 12,77 M 12,33 12,34 13,34 13,33 M 12,34 12,35 13,35 13,34 M 12,35 12,36 13,36 13,35 M 12,36 12,37 13,37 13,36 M 12,37 12,38 13,38 13,37 M 12,68 12,69 13,69 13,68 M 12,69 12,70 13,70 13,69 M 12,70 12,71 13,71 13,70 M 12,71 12,72 13,72 13,71 M 13,32 13,33 14,33 14,32 M 13,38 13,39 14,39 14,38 M 13,39 13,40 14,40 14,39 M 13,40 13,41 14,41 14,40 M 13,41 13,42 14,42 14,41 M 13,42 13,43 14,43 14,42 M 13,43 13,44 14,44 14,43 M 13,44 13,45 14,45 14,44 M 13,45 13,46 14,46 14,45 M 13,63 13,64 14,64 14,63 M 13,64 13,65 14,65 14,64 M 13,65 13,66 14,66 14,65 M 13,66 13,67 14,67 14,66 M 13,67 13,68 14,68 14,67 M 13,72 13,73 14,73 14,72 M 14,46 14,47 15,47 15,46 M 14,47 14,48 15,48 15,47 M 14,48 14,49 15,49 15,48 M 14,49 14,50 15,50 15,49 M 14,50 14,51 15,51 15,50 M 14,51 14,52 15,52 15,51 M 14,52 14,53 15,53 15,52 M 14,53 14,54 15,54 15,53 M 14,58 14,59 15,59 15,58 M 14,59 14,60 15,60 15,59 M 14,60 14,61 15,61 15,60 M 14,61 14,62 15,62 15,61 M 14,62 14,63 15,63 15,62 M 14,73 14,74 15,74 15,73 M 14,74 14,75 15,75 15,74 M 15,35 15,36 16,36 16,35 M 15,53 15,54 16,54 16,53 M 15,54 15,55 16,55 16,54 M 15,55 15,56 16,56 16,55 M 15,56 15,57 16,57 16,56 M 15,57 15,58 16,58 16,57 M 15,73 15,74 16,74 16,73 M 16,35 16,36 17,36 17,35 M 16,73 16,74 17,74 17,73 M 17,34 17,35 18,35 18,34 M 17,73 17,74 18,74 18,73 M 17,74 17,75 18,75 18,74 M 18,33 18,34 19,34 19,33 M 23,39 23,40 24,40 24,39 M 23,40 23,41 24,41 24,40 M 23,41 23,42 24,42 24,41 M 23,42 23,43 24,43 24,42 M 23,43 23,44 24,44 24,43 M 23,44 23,45 24,45 24,44 M 23,45 23,46 24,46 24,45 M 24,36 24,37 25,37 25,36 M 24,37 24,38 25,38 25,37 M 24,38 24,39 25,39 25,38 M 24,39 24,40 25,40 25,39 M 24,40 24,41 25,41 25,40 M 24,45 24,46 25,46 25,45 M 24,46 24,47 25,47 25,46 M 24,47 24,48 25,48 25,47 M 25,38 25,39 26,39 26,38 M 25,41 25,42 26,42 26,41 M 25,42 25,43 26,43 26,42 M 25,48 25,49 26,49 26,48 M 25,49 25,50 26,50 26,49 M 25,71 25,72 26,72 26,71 M 25,72 25,73 26,73 26,72 M 25,73 25,74 26,74 26,73 M 26,37 26,38 27,38 27,37 M 26,43 26,44 27,44 27,43 M 26,44 26,45 27,45 27,44 M 26,45 26,46 27,46 27,45 M 26,50 26,51 27,51 27,50 M 26,51 26,52 27,52 27,51 M 26,65 26,66 27,66 27,65 M 26,66 26,67 27,67 27,66 M 26,67 26,68 27,68 27,67 M 26,68 26,69 27,69 27,68 M 26,69 26,70 27,70 27,69 M 26,70 26,71 27,71 27,70 M 27,46 27,47 28,47 28,46 M 27,47 27,48 28,48 28,47 M 27,52 27,53 28,53 28,52 M 27,53 27,54 28,54 28,53 M 27,58 27,59 28,59 28,58 M 27,59 27,60 28,60 28,59 M 27,60 27,61 28,61 28,60 M 27,61 27,62 28,62 28,61 M 27,62 27,63 28,63 28,62 M 27,63 27,64 28,64 28,63 M 27,64 27,65 28,65 28,64 M 27,65 27,66 28,66 28,65 M 27,66 27,67 28,67 28,66 M 27,68 27,69 28,69 28,68 M 28,32 28,33 29,33 29,32 M 28,33 28,34 29,34 29,33 M 28,34 28,35 29,35 29,34 M 28,48 28,49 29,49 29,48 M 28,49 28,50 29,50 29,49 M 28,54 28,55 29,55 29,54 M 28,55 28,56 29,56 29,55 M 28,56 28,57 29,57 29,56 M 28,57 28,58 29,58 29,57 M 28,66 28,67 29,67 29,66 M 28,68 28,69 29,69 29,68 M 28,74 28,75 29,75 29,74 M 29,35 29,36 30,36 30,35 M 29,36 29,37 30,37 30,36 M 29,50 29,51 30,51 30,50 M 29,51 29,52 30,52 30,51 M 29,52 29,53 30,53 30,52 M 29,54 29,55 30,55 30,54 M 29,60 29,61 30,61 30,60 M 29,61 29,62 30,62 30,61 M 29,62 29,63 30,63 30,62 M 29,63 29,64 30,64 30,63 M 29,64 29,65 30,65 30,64 M 29,65 29,66 30,66 30,65 M 29,66 29,67 30,67 30,66 M 29,67 29,68 30,68 30,67 M 29,69 29,70 30,70 30,69 M 29,74 29,75 30,75 30,74 M 29,75 29,76 30,76 30,75 M 30,37 30,38 31,38 31,37 M 30,53 30,54 31,54 31,53 M 30,54 30,55 31,55 31,54 M 30,55 30,56 31,56 31,55 M 30,56 30,57 31,57 31,56 M 30,57 30,58 31,58 31,57 M 30,58 30,59 31,59 31,58 M 30,59 30,60 31,60 31,59 M 30,67 30,68 31,68 31,67 M 30,69 30,70 31,70 31,69 M 30,70 30,71 31,71 31,70 M 30,75 30,76 31,76 31,75 M 31,38 31,39 32,39 32,38 M 31,39 31,40 32,40 32,39 M 31,54 31,55 32,55 32,54 M 31,67 31,68 32,68 32,67 M 31,69 31,70 32,70 32,69 M 31,76 31,77 32,77 32,76 M 32,40 32,41 33,41 33,40 M 32,41 32,42 33,42 33,41 M 32,67 32,68 33,68 33,67 M 32,68 32,69 33,69 33,68 M 32,76 32,77 33,77 33,76 M 33,42 33,43 34,43 34,42 M 33,43 33,44 34,44 34,43 M 33,44 33,45 34,45 34,44 M 33,64 33,65 34,65 34,64 M 33,65 33,66 34,66 34,65 M 33,66 33,67 34,67 34,66 M 34,45 34,46 35,46 35,45 M 34,46 34,47 35,47 35,46 M 34,47 34,48 35,48 35,47 M 34,60 34,61 35,61 35,60 M 34,61 34,62 35,62 35,61 M 34,62 34,63 35,63 35,62 M 34,63 34,64 35,64 35,63 M 35,48 35,49 36,49 36,48 M 35,49 35,50 36,50 36,49 M 35,50 35,51 36,51 36,50 M 35,57 35,58 36,58 36,57 M 35,58 35,59 36,59 36,58 M 35,59 35,60 36,60 36,59 M 36,51 36,52 37,52 37,51 M 36,52 36,53 37,53 37,52 M 36,53 36,54 37,54 37,53 M 36,54 36,55 37,55 37,54 M 36,55 36,56 37,56 37,55 M 36,56 36,57 37,57 37,56  z" id="path6" style="fill:#202020;"/>
 <path d="M 10,78 10,79 11,79 11,78 M 11,78 11,79 12,79 12,78 M 11,79 11,80 12,80 12,79 M 20,77 20,78 21,78 21,77 M 21,77 21,78 22,78 22,77 M 22,77 22,78 23,78 23,77 M 22,78 22,79 23,79 23,78 M 22,79 22,80 23,80 23,79 M 23,77 23,78 24,78 24,77 M 23,78 23,79 24,79 24,78 M 23,79 23,80 24,80 24,79 M 24,77 24,78 25,78 25,77 M 24,78 24,79 25,79 25,78 M 24,79 24,80 25,80 25,79 M 25,77 25,78 26,78 26,77 M 25,78 25,79 26,79 26,78 M 25,79 25,80 26,80 26,79 M 26,76 26,77 27,77 27,76 M 26,77 26,78 27,78 27,77 M 26,78 26,79 27,79 27,78 M 26,79 26,80 27,80 27,79 M 27,76 27,77 28,77 28,76 M 27,77 27,78 28,78 28,77 M 27,78 27,79 28,79 28,78 M 27,79 27,80 28,80 28,79 M 28,76 28,77 29,77 29,76 M 28,77 28,78 29,78 29,77 M 28,78 28,79 29,79 29,78 M 29,76 29,77 30,77 30,76 M 29,77 29,78 30,78 30,77 M 29,78 29,79 30,79 30,78 M 30,76 30,77 31,77 31,76 M 30,77 30,78 31,78 31,77 M 30,78 30,79 31,79 31,78 M 31,77 31,78 32,78 32,77 M 31,78 31,79 32,79 32,78 M 32,77 32,78 33,78 33,77 M 32,78 32,79 33,79 33,78 M 33,77 33,78 34,78 34,77 M 33,78 33,79 34,79 34,78 M 34,77 34,78 35,78 35,77 M 35,77 35,78 36,78 36,77 M 36,77 36,78 37,78 37,77  z" id="path7" style="fill:#000000;"/>
 <path d="M 12,77 12,78 13,78 13,77 M 13,26 13,27 14,27 14,26 M 13,27 13,28 14,28 14,27 M 13,76 13,77 14,77 14,76 M 13,77 13,78 14,78 14,77 M 14,25 14,26 15,26 15,25 M 14,26 14,27 15,27 15,26 M 14,27 14,28 15,28 15,27 M 14,76 14,77 15,77 15,76 M 17,26 17,27 18,27 18,26 M 18,25 18,26 19,26 19,25 M 18,26 18,27 19,27 19,26 M 18,27 18,28 19,28 19,27 M 18,28 18,29 19,29 19,28 M 18,29 18,30 19,30 19,29 M 19,25 19,26 20,26 20,25 M 19,26 19,27 20,27 20,26 M 19,27 19,28 20,28 20,27 M 19,28 19,29 20,29 20,28 M 19,29 19,30 20,30 20,29 M 20,24 20,25 21,25 21,24 M 20,25 20,26 21,26 21,25 M 20,26 20,27 21,27 21,26 M 20,27 20,28 21,28 21,27 M 20,28 20,29 21,29 21,28 M 20,29 20,30 21,30 21,29 M 21,24 21,25 22,25 22,24 M 21,27 21,28 22,28 22,27 M 21,28 21,29 22,29 22,28 M 21,29 21,30 22,30 22,29 M 22,26 22,27 23,27 23,26 M 38,24 38,25 39,25 39,24 M 40,22 40,23 41,23 41,22 M 41,17 41,18 42,18 42,17 M 42,18 42,19 43,19 43,18  z" id="path8" style="fill:#e02000;"/>
 <path d="M 13,28 13,29 14,29 14,28 M 14,28 14,29 15,29 15,28 M 14,29 14,30 15,30 15,29 M 15,29 15,30 16,30 16,29 M 15,30 15,31 16,31 16,30 M 16,25 16,26 17,26 17,25 M 16,26 16,27 17,27 17,26 M 16,30 16,31 17,31 17,30 M 17,25 17,26 18,26 18,25 M 17,27 17,28 18,28 18,27 M 17,28 17,29 18,29 18,28 M 17,29 17,30 18,30 18,29 M 17,30 17,31 18,31 18,30 M 18,24 18,25 19,25 19,24 M 18,30 18,31 19,31 19,30 M 19,30 19,31 20,31 20,30 M 20,23 20,24 21,24 21,23 M 20,30 20,31 21,31 21,30 M 21,23 21,24 22,24 22,23 M 21,30 21,31 22,31 22,30 M 22,24 22,25 23,25 23,24 M 22,25 22,26 23,26 23,25 M 22,29 22,30 23,30 23,29 M 23,26 23,27 24,27 24,26 M 23,27 23,28 24,28 24,27 M 23,28 23,29 24,29 24,28 M 29,73 29,74 30,74 30,73 M 30,72 30,73 31,73 31,72 M 30,73 30,74 31,74 31,73 M 30,74 30,75 31,75 31,74 M 31,72 31,73 32,73 32,72 M 31,73 31,74 32,74 32,73 M 31,74 31,75 32,75 32,74 M 31,75 31,76 32,76 32,75 M 32,73 32,74 33,74 33,73 M 32,74 32,75 33,75 33,74 M 33,73 33,74 34,74 34,73 M 38,25 38,26 39,26 39,25 M 39,22 39,23 40,23 40,22 M 39,24 39,25 40,25 40,24 M 39,25 39,26 40,26 40,25 M 39,26 39,27 40,27 40,26 M 40,19 40,20 41,20 41,19 M 40,21 40,22 41,22 41,21 M 40,23 40,24 41,24 41,23 M 40,25 40,26 41,26 41,25 M 40,26 40,27 41,27 41,26 M 40,27 40,28 41,28 41,27 M 41,20 41,21 42,21 42,20 M 41,21 41,22 42,22 42,21 M 41,22 41,23 42,23 42,22 M 41,23 41,24 42,24 42,23 M 41,24 41,25 42,25 42,24 M 41,26 41,27 42,27 42,26 M 41,27 41,28 42,28 42,27 M 42,22 42,23 43,23 43,22 M 42,23 42,24 43,24 43,23 M 42,24 42,25 43,25 43,24 M 42,25 42,26 43,26 43,25 M 43,17 43,18 44,18 44,17 M 43,19 43,20 44,20 44,19 M 43,20 43,21 44,21 44,20 M 43,23 43,24 44,24 44,23 M 43,24 43,25 44,25 44,24 M 44,18 44,19 45,19 45,18 M 44,20 44,21 45,21 45,20 M 44,21 44,22 45,22 45,21 M 44,22 44,23 45,23 45,22 M 44,23 44,24 45,24 45,23 M 44,24 44,25 45,25 45,24 M 45,19 45,20 46,20 46,19 M 45,21 45,22 46,22 46,21 M 45,22 45,23 46,23 46,22 M 45,23 45,24 46,24 46,23 M 46,20 46,21 47,21 47,20 M 46,21 46,22 47,22 47,21 M 46,22 46,23 47,23 47,22  z" id="path9" style="fill:#800000;"/>
 <path d="M 13,33 13,34 14,34 14,33 M 13,34 13,35 14,35 14,34 M 13,35 13,36 14,36 14,35 M 13,36 13,37 14,37 14,36 M 13,37 13,38 14,38 14,37 M 13,68 13,69 14,69 14,68 M 13,69 13,70 14,70 14,69 M 13,71 13,72 14,72 14,71 M 14,31 14,32 15,32 15,31 M 14,32 14,33 15,33 15,32 M 14,38 14,39 15,39 15,38 M 14,39 14,40 15,40 15,39 M 14,40 14,41 15,41 15,40 M 14,41 14,42 15,42 15,41 M 14,42 14,43 15,43 15,42 M 14,43 14,44 15,44 15,43 M 14,44 14,45 15,45 15,44 M 14,45 14,46 15,46 15,45 M 14,63 14,64 15,64 15,63 M 14,64 14,65 15,65 15,64 M 14,70 14,71 15,71 15,70 M 14,72 14,73 15,73 15,72 M 15,31 15,32 16,32 16,31 M 15,32 15,33 16,33 16,32 M 15,33 15,34 16,34 16,33 M 15,34 15,35 16,35 16,34 M 15,36 15,37 16,37 16,36 M 15,37 15,38 16,38 16,37 M 15,38 15,39 16,39 16,38 M 15,46 15,47 16,47 16,46 M 15,47 15,48 16,48 16,47 M 15,48 15,49 16,49 16,48 M 15,49 15,50 16,50 16,49 M 15,50 15,51 16,51 16,50 M 15,51 15,52 16,52 16,51 M 15,52 15,53 16,53 16,52 M 15,58 15,59 16,59 16,58 M 15,59 15,60 16,60 16,59 M 15,60 15,61 16,61 16,60 M 15,63 15,64 16,64 16,63 M 15,64 15,65 16,65 16,64 M 15,65 15,66 16,66 16,65 M 15,66 15,67 16,67 16,66 M 15,67 15,68 16,68 16,67 M 15,68 15,69 16,69 16,68 M 15,69 15,70 16,70 16,69 M 15,70 15,71 16,71 16,70 M 15,72 15,73 16,73 16,72 M 16,31 16,32 17,32 17,31 M 16,34 16,35 17,35 17,34 M 16,39 16,40 17,40 17,39 M 16,40 16,41 17,41 17,40 M 16,41 16,42 17,42 17,41 M 16,42 16,43 17,43 17,42 M 16,43 16,44 17,44 17,43 M 16,44 16,45 17,45 17,44 M 16,45 16,46 17,46 17,45 M 16,55 16,56 17,56 17,55 M 16,56 16,57 17,57 17,56 M 16,57 16,58 17,58 17,57 M 16,58 16,59 17,59 17,58 M 16,59 16,60 17,60 17,59 M 16,60 16,61 17,61 17,60 M 16,61 16,62 17,62 17,61 M 16,62 16,63 17,63 17,62 M 16,70 16,71 17,71 17,70 M 16,72 16,73 17,73 17,72 M 17,33 17,34 18,34 18,33 M 17,46 17,47 18,47 18,46 M 17,47 17,48 18,48 18,47 M 17,48 17,49 18,49 18,48 M 17,49 17,50 18,50 18,49 M 17,50 17,51 18,51 18,50 M 17,51 17,52 18,52 18,51 M 17,52 17,53 18,53 18,52 M 17,53 17,54 18,54 18,53 M 17,54 17,55 18,55 18,54 M 17,55 17,56 18,56 18,55 M 17,57 17,58 18,58 18,57 M 17,70 17,71 18,71 18,70 M 17,72 17,73 18,73 18,72 M 18,31 18,32 19,32 19,31 M 18,32 18,33 19,33 19,32 M 18,35 18,36 19,36 19,35 M 18,69 18,70 19,70 19,69 M 18,70 18,71 19,71 19,70 M 18,71 18,72 19,72 19,71 M 19,35 19,36 20,36 20,35 M 19,65 19,66 20,66 20,65 M 19,66 19,67 20,67 20,66 M 19,67 19,68 20,68 20,67 M 19,68 19,69 20,69 20,68 M 20,32 20,33 21,33 21,32 M 20,36 20,37 21,37 21,36 M 20,62 20,63 21,63 21,62 M 20,63 20,64 21,64 21,63 M 20,64 20,65 21,65 21,64 M 21,36 21,37 22,37 22,36 M 21,37 21,38 22,38 22,37 M 21,58 21,59 22,59 22,58 M 21,59 21,60 22,60 22,59 M 21,60 21,61 22,61 22,60 M 21,61 21,62 22,62 22,61 M 22,6 22,7 23,7 23,6 M 22,35 22,36 23,36 23,35 M 22,36 22,37 23,37 23,36 M 22,37 22,38 23,38 23,37 M 22,38 22,39 23,39 23,38 M 22,48 22,49 23,49 23,48 M 22,49 22,50 23,50 23,49 M 22,50 22,51 23,51 23,50 M 22,51 22,52 23,52 23,51 M 22,52 22,53 23,53 23,52 M 22,53 22,54 23,54 23,53 M 22,54 22,55 23,55 23,54 M 22,55 22,56 23,56 23,55 M 22,56 22,57 23,57 23,56 M 22,57 22,58 23,58 23,57 M 23,6 23,7 24,7 24,6 M 23,33 23,34 24,34 24,33 M 23,34 23,35 24,35 24,34 M 23,37 23,38 24,38 24,37 M 23,38 23,39 24,39 24,38 M 23,46 23,47 24,47 24,46 M 23,47 23,48 24,48 24,47 M 24,35 24,36 25,36 25,35 M 24,41 24,42 25,42 25,41 M 24,42 24,43 25,43 25,42 M 24,43 24,44 25,44 25,43 M 24,44 24,45 25,45 25,44 M 25,7 25,8 26,8 26,7 M 25,33 25,34 26,34 26,33 M 25,34 25,35 26,35 26,34 M 25,36 25,37 26,37 26,36 M 25,37 25,38 26,38 26,37 M 25,39 25,40 26,40 26,39 M 25,40 25,41 26,41 26,40 M 25,43 25,44 26,44 26,43 M 25,44 25,45 26,45 26,44 M 25,45 25,46 26,46 26,45 M 25,46 25,47 26,47 26,46 M 25,47 25,48 26,48 26,47 M 26,35 26,36 27,36 27,35 M 26,38 26,39 27,39 27,38 M 26,39 26,40 27,40 27,39 M 26,40 26,41 27,41 27,40 M 26,41 26,42 27,42 27,41 M 26,42 26,43 27,43 27,42 M 26,46 26,47 27,47 27,46 M 26,47 26,48 27,48 27,47 M 26,48 26,49 27,49 27,48 M 26,49 26,50 27,50 27,49 M 27,7 27,8 28,8 28,7 M 27,32 27,33 28,33 28,32 M 27,33 27,34 28,34 28,33 M 27,34 27,35 28,35 28,34 M 27,35 27,36 28,36 28,35 M 27,36 27,37 28,37 28,36 M 27,37 27,38 28,38 28,37 M 27,38 27,39 28,39 28,38 M 27,40 27,41 28,41 28,40 M 27,41 27,42 28,42 28,41 M 27,42 27,43 28,43 28,42 M 27,43 27,44 28,44 28,43 M 27,44 27,45 28,45 28,44 M 27,45 27,46 28,46 28,45 M 27,48 27,49 28,49 28,48 M 27,49 27,50 28,50 28,49 M 27,50 27,51 28,51 28,50 M 27,51 27,52 28,52 28,51 M 27,67 27,68 28,68 28,67 M 28,35 28,36 29,36 29,35 M 28,39 28,40 29,40 29,39 M 28,40 28,41 29,41 29,40 M 28,41 28,42 29,42 29,41 M 28,42 28,43 29,43 29,42 M 28,43 28,44 29,44 29,43 M 28,44 28,45 29,45 29,44 M 28,45 28,46 29,46 29,45 M 28,46 28,47 29,47 29,46 M 28,47 28,48 29,48 29,47 M 28,50 28,51 29,51 29,50 M 28,51 28,52 29,52 29,51 M 28,52 28,53 29,53 29,52 M 28,53 28,54 29,54 29,53 M 28,58 28,59 29,59 29,58 M 28,59 28,60 29,60 29,59 M 28,60 28,61 29,61 29,60 M 28,61 28,62 29,62 29,61 M 28,62 28,63 29,63 29,62 M 28,63 28,64 29,64 29,63 M 28,64 28,65 29,65 29,64 M 28,65 28,66 29,66 29,65 M 28,67 28,68 29,68 29,67 M 29,37 29,38 30,38 30,37 M 29,42 29,43 30,43 30,42 M 29,43 29,44 30,44 30,43 M 29,44 29,45 30,45 30,44 M 29,45 29,46 30,46 30,45 M 29,46 29,47 30,47 30,46 M 29,47 29,48 30,48 30,47 M 29,48 29,49 30,49 30,48 M 29,49 29,50 30,50 30,49 M 29,53 29,54 30,54 30,53 M 29,55 29,56 30,56 30,55 M 29,56 29,57 30,57 30,56 M 29,57 29,58 30,58 30,57 M 29,58 29,59 30,59 30,58 M 29,59 29,60 30,60 30,59 M 29,68 29,69 30,69 30,68 M 30,8 30,9 31,9 31,8 M 30,38 30,39 31,39 31,38 M 30,39 30,40 31,40 31,39 M 30,43 30,44 31,44 31,43 M 30,44 30,45 31,45 31,44 M 30,45 30,46 31,46 31,45 M 30,46 30,47 31,47 31,46 M 30,47 30,48 31,48 31,47 M 30,48 30,49 31,49 31,48 M 30,49 30,50 31,50 31,49 M 30,50 30,51 31,51 31,50 M 30,51 30,52 31,52 31,51 M 30,52 30,53 31,53 31,52 M 30,60 30,61 31,61 31,60 M 30,61 30,62 31,62 31,61 M 30,62 30,63 31,63 31,62 M 30,63 30,64 31,64 31,63 M 30,64 30,65 31,65 31,64 M 30,65 30,66 31,66 31,65 M 30,66 30,67 31,67 31,66 M 30,68 30,69 31,69 31,68 M 31,9 31,10 32,10 32,9 M 31,40 31,41 32,41 32,40 M 31,41 31,42 32,42 32,41 M 31,45 31,46 32,46 32,45 M 31,46 31,47 32,47 32,46 M 31,47 31,48 32,48 32,47 M 31,48 31,49 32,49 32,48 M 31,49 31,50 32,50 32,49 M 31,50 31,51 32,51 32,50 M 31,51 31,52 32,52 32,51 M 31,52 31,53 32,53 32,52 M 31,53 31,54 32,54 32,53 M 31,55 31,56 32,56 32,55 M 31,56 31,57 32,57 32,56 M 31,57 31,58 32,58 32,57 M 31,58 31,59 32,59 32,58 M 31,59 31,60 32,60 32,59 M 31,60 31,61 32,61 32,60 M 31,61 31,62 32,62 32,61 M 31,62 31,63 32,63 32,62 M 31,63 31,64 32,64 32,63 M 31,64 31,65 32,65 32,64 M 31,65 31,66 32,66 32,65 M 31,66 31,67 32,67 32,66 M 31,68 31,69 32,69 32,68 M 32,42 32,43 33,43 33,42 M 32,43 32,44 33,44 33,43 M 32,47 32,48 33,48 33,47 M 32,48 32,49 33,49 33,48 M 32,49 32,50 33,50 33,49 M 32,50 32,51 33,51 33,50 M 32,51 32,52 33,52 33,51 M 32,52 32,53 33,53 33,52 M 32,53 32,54 33,54 33,53 M 32,54 32,55 33,55 33,54 M 32,55 32,56 33,56 33,55 M 32,56 32,57 33,57 33,56 M 32,57 32,58 33,58 33,57 M 32,58 32,59 33,59 33,58 M 32,59 32,60 33,60 33,59 M 32,65 32,66 33,66 33,65 M 32,66 32,67 33,67 33,66 M 33,45 33,46 34,46 34,45 M 33,46 33,47 34,47 34,46 M 33,50 33,51 34,51 34,50 M 33,51 33,52 34,52 34,51 M 33,55 33,56 34,56 34,55 M 33,60 33,61 34,61 34,60 M 33,61 33,62 34,62 34,61 M 33,62 33,63 34,63 34,62 M 33,63 33,64 34,64 34,63 M 34,48 34,49 35,49 35,48 M 34,49 34,50 35,50 35,49 M 34,51 34,52 35,52 35,51 M 34,52 34,53 35,53 35,52 M 34,56 34,57 35,57 35,56 M 34,57 34,58 35,58 35,57 M 34,58 34,59 35,59 35,58 M 34,59 34,60 35,60 35,59 M 35,51 35,52 36,52 36,51 M 35,52 35,53 36,53 36,52 M 35,53 35,54 36,54 36,53 M 35,54 35,55 36,55 36,54 M 35,55 35,56 36,56 36,55 M 35,56 35,57 36,57 36,56  z" id="path10" style="fill:#204080;"/>
 <path d="M 13,70 13,71 14,71 14,70 M 14,33 14,34 15,34 15,33 M 14,34 14,35 15,35 15,34 M 14,35 14,36 15,36 15,35 M 14,36 14,37 15,37 15,36 M 14,37 14,38 15,38 15,37 M 14,65 14,66 15,66 15,65 M 14,66 14,67 15,67 15,66 M 14,67 14,68 15,68 15,67 M 14,68 14,69 15,69 15,68 M 14,69 14,70 15,70 15,69 M 14,71 14,72 15,72 15,71 M 15,39 15,40 16,40 16,39 M 15,40 15,41 16,41 16,40 M 15,41 15,42 16,42 16,41 M 15,42 15,43 16,43 16,42 M 15,43 15,44 16,44 16,43 M 15,44 15,45 16,45 16,44 M 15,45 15,46 16,46 16,45 M 15,61 15,62 16,62 16,61 M 15,62 15,63 16,63 16,62 M 15,71 15,72 16,72 16,71 M 16,32 16,33 17,33 17,32 M 16,33 16,34 17,34 17,33 M 16,36 16,37 17,37 17,36 M 16,37 16,38 17,38 17,37 M 16,38 16,39 17,39 17,38 M 16,46 16,47 17,47 17,46 M 16,50 16,51 17,51 17,50 M 16,51 16,52 17,52 17,51 M 16,52 16,53 17,53 17,52 M 16,53 16,54 17,54 17,53 M 16,54 16,55 17,55 17,54 M 16,63 16,64 17,64 17,63 M 16,64 16,65 17,65 17,64 M 16,65 16,66 17,66 17,65 M 16,66 16,67 17,67 17,66 M 16,67 16,68 17,68 17,67 M 16,68 16,69 17,69 17,68 M 16,69 16,70 17,70 17,69 M 16,71 16,72 17,72 17,71 M 17,31 17,32 18,32 18,31 M 17,32 17,33 18,33 18,32 M 17,35 17,36 18,36 18,35 M 17,37 17,38 18,38 18,37 M 17,38 17,39 18,39 18,38 M 17,39 17,40 18,40 18,39 M 17,40 17,41 18,41 18,40 M 17,41 17,42 18,42 18,41 M 17,42 17,43 18,43 18,42 M 17,43 17,44 18,44 18,43 M 17,44 17,45 18,45 18,44 M 17,45 17,46 18,46 18,45 M 17,56 17,57 18,57 18,56 M 17,58 17,59 18,59 18,58 M 17,59 17,60 18,60 18,59 M 17,60 17,61 18,61 18,60 M 17,61 17,62 18,62 18,61 M 17,62 17,63 18,63 18,62 M 17,63 17,64 18,64 18,63 M 17,64 17,65 18,65 18,64 M 17,65 17,66 18,66 18,65 M 17,66 17,67 18,67 18,66 M 17,67 17,68 18,68 18,67 M 17,68 17,69 18,69 18,68 M 17,69 17,70 18,70 18,69 M 18,34 18,35 19,35 19,34 M 18,37 18,38 19,38 19,37 M 18,51 18,52 19,52 19,51 M 18,52 18,53 19,53 19,52 M 18,53 18,54 19,54 19,53 M 18,54 18,55 19,55 19,54 M 18,55 18,56 19,56 19,55 M 18,56 18,57 19,57 19,56 M 18,57 18,58 19,58 19,57 M 18,58 18,59 19,59 19,58 M 18,59 18,60 19,60 19,59 M 18,60 18,61 19,61 19,60 M 18,61 18,62 19,62 19,61 M 18,67 18,68 19,68 19,67 M 18,68 18,69 19,69 19,68 M 19,32 19,33 20,33 20,32 M 19,34 19,35 20,35 20,34 M 19,36 19,37 20,37 20,36 M 19,57 19,58 20,58 20,57 M 19,59 19,60 20,60 20,59 M 19,62 19,63 20,63 20,62 M 19,63 19,64 20,64 20,63 M 19,64 19,65 20,65 20,64 M 20,34 20,35 21,35 21,34 M 20,35 20,36 21,36 21,35 M 20,37 20,38 21,38 21,37 M 20,57 20,58 21,58 21,57 M 20,58 20,59 21,59 21,58 M 20,59 20,60 21,60 21,59 M 20,60 20,61 21,61 21,60 M 20,61 20,62 21,62 21,61 M 21,33 21,34 22,34 22,33 M 21,35 21,36 22,36 22,35 M 21,38 21,39 22,39 22,38 M 21,54 21,55 22,55 22,54 M 21,55 21,56 22,56 22,55 M 21,56 21,57 22,57 22,56 M 21,57 21,58 22,58 22,57 M 22,33 22,34 23,34 23,33 M 22,39 22,40 23,40 23,39 M 22,40 22,41 23,41 23,40 M 22,41 22,42 23,42 23,41 M 22,42 22,43 23,43 23,42 M 22,43 22,44 23,44 23,43 M 22,44 22,45 23,45 23,44 M 22,45 22,46 23,46 23,45 M 22,46 22,47 23,47 23,46 M 22,47 22,48 23,48 23,47 M 23,36 23,37 24,37 24,36 M 24,33 24,34 25,34 25,33 M 25,35 25,36 26,36 26,35 M 26,7 26,8 27,8 27,7 M 26,33 26,34 27,34 27,33 M 26,34 26,35 27,35 27,34 M 26,36 26,37 27,37 27,36 M 27,8 27,9 28,9 28,8 M 27,39 27,40 28,40 28,39 M 28,36 28,37 29,37 29,36 M 28,37 28,38 29,38 29,37 M 28,38 28,39 29,39 29,38 M 29,8 29,9 30,9 30,8 M 29,38 29,39 30,39 30,38 M 29,39 29,40 30,40 30,39 M 29,40 29,41 30,41 30,40 M 29,41 29,42 30,42 30,41 M 30,9 30,10 31,10 31,9 M 30,40 30,41 31,41 31,40 M 30,41 30,42 31,42 31,41 M 30,42 30,43 31,43 31,42 M 31,42 31,43 32,43 32,42 M 31,43 31,44 32,44 32,43 M 31,44 31,45 32,45 32,44 M 32,44 32,45 33,45 33,44 M 32,45 32,46 33,46 33,45 M 32,46 32,47 33,47 33,46 M 32,60 32,61 33,61 33,60 M 32,61 32,62 33,62 33,61 M 32,62 32,63 33,63 33,62 M 32,63 32,64 33,64 33,63 M 32,64 32,65 33,65 33,64 M 33,47 33,48 34,48 34,47 M 33,48 33,49 34,49 34,48 M 33,49 33,50 34,50 34,49 M 33,52 33,53 34,53 34,52 M 33,53 33,54 34,54 34,53 M 33,54 33,55 34,55 34,54 M 33,56 33,57 34,57 34,56 M 33,57 33,58 34,58 34,57 M 33,58 33,59 34,59 34,58 M 33,59 33,60 34,60 34,59 M 34,50 34,51 35,51 35,50 M 34,53 34,54 35,54 35,53 M 34,54 34,55 35,55 35,54 M 34,55 34,56 35,56 35,55  z" id="path11" style="fill:#6060c0;"/>
 <path d="M 16,47 16,48 17,48 17,47 M 16,48 16,49 17,49 17,48 M 16,49 16,50 17,50 17,49 M 17,36 17,37 18,37 18,36 M 17,71 17,72 18,72 18,71 M 18,36 18,37 19,37 19,36 M 18,38 18,39 19,39 19,38 M 18,39 18,40 19,40 19,39 M 18,40 18,41 19,41 19,40 M 18,41 18,42 19,42 19,41 M 18,42 18,43 19,43 19,42 M 18,43 18,44 19,44 19,43 M 18,44 18,45 19,45 19,44 M 18,45 18,46 19,46 19,45 M 18,46 18,47 19,47 19,46 M 18,47 18,48 19,48 19,47 M 18,48 18,49 19,49 19,48 M 18,49 18,50 19,50 19,49 M 18,50 18,51 19,51 19,50 M 18,62 18,63 19,63 19,62 M 18,63 18,64 19,64 19,63 M 18,64 18,65 19,65 19,64 M 18,65 18,66 19,66 19,65 M 18,66 18,67 19,67 19,66 M 19,33 19,34 20,34 20,33 M 19,37 19,38 20,38 20,37 M 19,38 19,39 20,39 20,38 M 19,39 19,40 20,40 20,39 M 19,40 19,41 20,41 20,40 M 19,41 19,42 20,42 20,41 M 19,42 19,43 20,43 20,42 M 19,43 19,44 20,44 20,43 M 19,44 19,45 20,45 20,44 M 19,45 19,46 20,46 20,45 M 19,46 19,47 20,47 20,46 M 19,47 19,48 20,48 20,47 M 19,48 19,49 20,49 20,48 M 19,49 19,50 20,50 20,49 M 19,50 19,51 20,51 20,50 M 19,51 19,52 20,52 20,51 M 19,52 19,53 20,53 20,52 M 19,53 19,54 20,54 20,53 M 19,54 19,55 20,55 20,54 M 19,55 19,56 20,56 20,55 M 19,56 19,57 20,57 20,56 M 19,58 19,59 20,59 20,58 M 19,60 19,61 20,61 20,60 M 19,61 19,62 20,62 20,61 M 20,33 20,34 21,34 21,33 M 20,38 20,39 21,39 21,38 M 20,39 20,40 21,40 21,39 M 20,40 20,41 21,41 21,40 M 20,41 20,42 21,42 21,41 M 20,42 20,43 21,43 21,42 M 20,43 20,44 21,44 21,43 M 20,44 20,45 21,45 21,44 M 20,45 20,46 21,46 21,45 M 20,46 20,47 21,47 21,46 M 20,47 20,48 21,48 21,47 M 20,48 20,49 21,49 21,48 M 20,49 20,50 21,50 21,49 M 20,50 20,51 21,51 21,50 M 20,51 20,52 21,52 21,51 M 20,52 20,53 21,53 21,52 M 20,53 20,54 21,54 21,53 M 20,54 20,55 21,55 21,54 M 20,55 20,56 21,56 21,55 M 20,56 20,57 21,57 21,56 M 21,34 21,35 22,35 22,34 M 21,39 21,40 22,40 22,39 M 21,40 21,41 22,41 22,40 M 21,41 21,42 22,42 22,41 M 21,42 21,43 22,43 22,42 M 21,43 21,44 22,44 22,43 M 21,44 21,45 22,45 22,44 M 21,45 21,46 22,46 22,45 M 21,46 21,47 22,47 22,46 M 21,47 21,48 22,48 22,47 M 21,48 21,49 22,49 22,48 M 21,49 21,50 22,50 22,49 M 21,50 21,51 22,51 22,50 M 21,51 21,52 22,52 22,51 M 21,52 21,53 22,53 22,52 M 21,53 21,54 22,54 22,53 M 22,34 22,35 23,35 23,34 M 23,35 23,36 24,36 24,35 M 24,34 24,35 25,35 25,34  z" id="path12" style="fill:#a0a0e0;"/>
 <path d="M 20,9 20,10 21,10 21,9 M 20,11 20,12 21,12 21,11 M 21,7 21,8 22,8 22,7 M 21,26 21,27 22,27 22,26 M 22,28 22,29 23,29 23,28 M 23,4 23,5 24,5 24,4 M 24,3 24,4 25,4 25,3 M 24,5 24,6 25,6 25,5 M 25,4 25,5 26,5 26,4 M 26,6 26,7 27,7 27,6 M 27,3 27,4 28,4 28,3 M 27,5 27,6 28,6 28,5 M 28,3 28,4 29,4 29,3 M 28,6 28,7 29,7 29,6 M 29,4 29,5 30,5 30,4 M 29,5 29,6 30,6 30,5 M 29,7 29,8 30,8 30,7 M 30,4 30,5 31,5 31,4 M 30,6 30,7 31,7 31,6 M 31,5 31,6 32,6 32,5 M 31,7 31,8 32,8 32,7 M 31,8 31,9 32,9 32,8 M 31,10 31,11 32,11 32,10 M 32,5 32,6 33,6 33,5 M 32,9 32,10 33,10 33,9 M 33,6 33,7 34,7 34,6 M 33,7 33,8 34,8 34,7 M 33,8 33,9 34,9 34,8 M 45,20 45,21 46,21 46,20  z" id="path13" style="fill:#e08000;"/>
 <path d="M 20,10 20,11 21,11 21,10 M 21,8 21,9 22,9 22,8 M 21,25 21,26 22,26 22,25 M 22,5 22,6 23,6 23,5 M 22,27 22,28 23,28 23,27 M 23,5 23,6 24,6 24,5 M 24,6 24,7 25,7 25,6 M 24,7 24,8 25,8 25,7 M 25,6 25,7 26,7 26,6 M 26,3 26,4 27,4 27,3 M 26,5 26,6 27,6 27,5 M 27,6 27,7 28,7 28,6 M 28,4 28,5 29,5 29,4 M 28,5 28,6 29,6 29,5 M 28,7 28,8 29,8 29,7 M 28,8 28,9 29,9 29,8 M 28,9 28,10 29,10 29,9 M 29,6 29,7 30,7 30,6 M 30,5 30,6 31,6 31,5 M 31,6 31,7 32,7 32,6 M 32,7 32,8 33,8 33,7 M 32,8 32,9 33,9 33,8 M 42,17 42,18 43,18 43,17 M 43,18 43,19 44,19 44,18 M 44,19 44,20 45,20 45,19  z" id="path14" style="fill:#e0e000;"/>
</svg>
